<svg width="274" height="274" viewBox="0 0 274 274" fill="none" xmlns="http://www.w3.org/2000/svg">
<path d="M87.6801 0H98.6401V10.96H87.6801V0Z" fill="#2F3342"/>
<path d="M98.64 0H109.6V10.96H98.64V0Z" fill="#2F3342"/>
<path d="M153.44 0H164.4V10.96H153.44V0Z" fill="#2F3342"/>
<path d="M87.6801 10.96H98.6401V21.92H87.6801V10.96Z" fill="#2F3342"/>
<path d="M109.6 10.96H120.56V21.92H109.6V10.96Z" fill="#2F3342"/>
<path d="M142.48 10.96H153.44V21.92H142.48V10.96Z" fill="#2F3342"/>
<path d="M175.36 10.96H186.32V21.92H175.36V10.96Z" fill="#2F3342"/>
<path d="M87.6801 21.92H98.6401V32.88H87.6801V21.92Z" fill="#2F3342"/>
<path d="M98.64 21.92H109.6V32.88H98.64V21.92Z" fill="#2F3342"/>
<path d="M120.56 21.92H131.52V32.88H120.56V21.92Z" fill="#2F3342"/>
<path d="M131.52 21.92H142.48V32.88H131.52V21.92Z" fill="#2F3342"/>
<path d="M142.48 21.92H153.44V32.88H142.48V21.92Z" fill="#2F3342"/>
<path d="M153.44 21.92H164.4V32.88H153.44V21.92Z" fill="#2F3342"/>
<path d="M164.4 21.92H175.36V32.88H164.4V21.92Z" fill="#2F3342"/>
<path d="M175.36 21.92H186.32V32.88H175.36V21.92Z" fill="#2F3342"/>
<path d="M98.64 32.88H109.6V43.84H98.64V32.88Z" fill="#2F3342"/>
<path d="M109.6 32.88H120.56V43.84H109.6V32.88Z" fill="#2F3342"/>
<path d="M142.48 32.88H153.44V43.84H142.48V32.88Z" fill="#2F3342"/>
<path d="M175.36 32.88H186.32V43.84H175.36V32.88Z" fill="#2F3342"/>
<path d="M87.6801 43.84H98.6401V54.8H87.6801V43.84Z" fill="#2F3342"/>
<path d="M109.6 43.84H120.56V54.8H109.6V43.84Z" fill="#2F3342"/>
<path d="M131.52 43.84H142.48V54.8H131.52V43.84Z" fill="#2F3342"/>
<path d="M153.44 43.84H164.4V54.8H153.44V43.84Z" fill="#2F3342"/>
<path d="M175.36 43.84H186.32V54.8H175.36V43.84Z" fill="#2F3342"/>
<path d="M98.64 54.8H109.6V65.76H98.64V54.8Z" fill="#2F3342"/>
<path d="M131.52 54.8H142.48V65.76H131.52V54.8Z" fill="#2F3342"/>
<path d="M175.36 54.8H186.32V65.76H175.36V54.8Z" fill="#2F3342"/>
<path d="M87.6801 65.76H98.6401V76.72H87.6801V65.76Z" fill="#2F3342"/>
<path d="M109.6 65.76H120.56V76.72H109.6V65.76Z" fill="#2F3342"/>
<path d="M131.52 65.76H142.48V76.72H131.52V65.76Z" fill="#2F3342"/>
<path d="M153.44 65.76H164.4V76.72H153.44V65.76Z" fill="#2F3342"/>
<path d="M175.36 65.76H186.32V76.72H175.36V65.76Z" fill="#2F3342"/>
<path d="M98.64 76.72H109.6V87.68H98.64V76.72Z" fill="#2F3342"/>
<path d="M109.6 76.72H120.56V87.68H109.6V76.72Z" fill="#2F3342"/>
<path d="M120.56 76.72H131.52V87.68H120.56V76.72Z" fill="#2F3342"/>
<path d="M131.52 76.72H142.48V87.68H131.52V76.72Z" fill="#2F3342"/>
<path d="M142.48 76.72H153.44V87.68H142.48V76.72Z" fill="#2F3342"/>
<path d="M175.36 76.72H186.32V87.68H175.36V76.72Z" fill="#2F3342"/>
<path d="M0 87.68H10.96V98.64H0V87.68Z" fill="#2F3342"/>
<path d="M32.88 87.68H43.84V98.64H32.88V87.68Z" fill="#2F3342"/>
<path d="M43.84 87.68H54.8V98.64H43.84V87.68Z" fill="#2F3342"/>
<path d="M54.8 87.68H65.76V98.64H54.8V87.68Z" fill="#2F3342"/>
<path d="M65.76 87.68H76.72V98.64H65.76V87.68Z" fill="#2F3342"/>
<path d="M76.72 87.68H87.68V98.64H76.72V87.68Z" fill="#2F3342"/>
<path d="M87.6801 87.68H98.6401V98.64H87.6801V87.68Z" fill="#2F3342"/>
<path d="M120.56 87.68H131.52V98.64H120.56V87.68Z" fill="#2F3342"/>
<path d="M153.44 87.68H164.4V98.64H153.44V87.68Z" fill="#2F3342"/>
<path d="M164.4 87.68H175.36V98.64H164.4V87.68Z" fill="#2F3342"/>
<path d="M186.32 87.68H197.28V98.64H186.32V87.68Z" fill="#2F3342"/>
<path d="M219.2 87.68H230.16V98.64H219.2V87.68Z" fill="#2F3342"/>
<path d="M241.12 87.68H252.08V98.64H241.12V87.68Z" fill="#2F3342"/>
<path d="M252.08 87.68H263.04V98.64H252.08V87.68Z" fill="#2F3342"/>
<path d="M263.04 87.68H274V98.64H263.04V87.68Z" fill="#2F3342"/>
<path d="M0 98.64H10.96V109.6H0V98.64Z" fill="#2F3342"/>
<path d="M10.96 98.64H21.92V109.6H10.96V98.64Z" fill="#2F3342"/>
<path d="M21.92 98.64H32.88V109.6H21.92V98.64Z" fill="#2F3342"/>
<path d="M43.84 98.64H54.8V109.6H43.84V98.64Z" fill="#2F3342"/>
<path d="M98.64 98.64H109.6V109.6H98.64V98.64Z" fill="#2F3342"/>
<path d="M120.56 98.64H131.52V109.6H120.56V98.64Z" fill="#2F3342"/>
<path d="M164.4 98.64H175.36V109.6H164.4V98.64Z" fill="#2F3342"/>
<path d="M186.32 98.64H197.28V109.6H186.32V98.64Z" fill="#2F3342"/>
<path d="M208.24 98.64H219.2V109.6H208.24V98.64Z" fill="#2F3342"/>
<path d="M219.2 98.64H230.16V109.6H219.2V98.64Z" fill="#2F3342"/>
<path d="M230.16 98.64H241.12V109.6H230.16V98.64Z" fill="#2F3342"/>
<path d="M241.12 98.64H252.08V109.6H241.12V98.64Z" fill="#2F3342"/>
<path d="M252.08 98.64H263.04V109.6H252.08V98.64Z" fill="#2F3342"/>
<path d="M0 109.6H10.96V120.56H0V109.6Z" fill="#2F3342"/>
<path d="M32.88 109.6H43.84V120.56H32.88V109.6Z" fill="#2F3342"/>
<path d="M43.84 109.6H54.8V120.56H43.84V109.6Z" fill="#2F3342"/>
<path d="M65.76 109.6H76.72V120.56H65.76V109.6Z" fill="#2F3342"/>
<path d="M87.6801 109.6H98.6401V120.56H87.6801V109.6Z" fill="#2F3342"/>
<path d="M109.6 109.6H120.56V120.56H109.6V109.6Z" fill="#2F3342"/>
<path d="M120.56 109.6H131.52V120.56H120.56V109.6Z" fill="#2F3342"/>
<path d="M164.4 109.6H175.36V120.56H164.4V109.6Z" fill="#2F3342"/>
<path d="M175.36 109.6H186.32V120.56H175.36V109.6Z" fill="#2F3342"/>
<path d="M186.32 109.6H197.28V120.56H186.32V109.6Z" fill="#2F3342"/>
<path d="M197.28 109.6H208.24V120.56H197.28V109.6Z" fill="#2F3342"/>
<path d="M208.24 109.6H219.2V120.56H208.24V109.6Z" fill="#2F3342"/>
<path d="M219.2 109.6H230.16V120.56H219.2V109.6Z" fill="#2F3342"/>
<path d="M230.16 109.6H241.12V120.56H230.16V109.6Z" fill="#2F3342"/>
<path d="M263.04 109.6H274V120.56H263.04V109.6Z" fill="#2F3342"/>
<path d="M0 120.56H10.96V131.52H0V120.56Z" fill="#2F3342"/>
<path d="M21.92 120.56H32.88V131.52H21.92V120.56Z" fill="#2F3342"/>
<path d="M43.84 120.56H54.8V131.52H43.84V120.56Z" fill="#2F3342"/>
<path d="M98.64 120.56H109.6V131.52H98.64V120.56Z" fill="#2F3342"/>
<path d="M120.56 120.56H131.52V131.52H120.56V120.56Z" fill="#2F3342"/>
<path d="M164.4 120.56H175.36V131.52H164.4V120.56Z" fill="#2F3342"/>
<path d="M175.36 120.56H186.32V131.52H175.36V120.56Z" fill="#2F3342"/>
<path d="M208.24 120.56H219.2V131.52H208.24V120.56Z" fill="#2F3342"/>
<path d="M219.2 120.56H230.16V131.52H219.2V120.56Z" fill="#2F3342"/>
<path d="M230.16 120.56H241.12V131.52H230.16V120.56Z" fill="#2F3342"/>
<path d="M241.12 120.56H252.08V131.52H241.12V120.56Z" fill="#2F3342"/>
<path d="M252.08 120.56H263.04V131.52H252.08V120.56Z" fill="#2F3342"/>
<path d="M263.04 120.56H274V131.52H263.04V120.56Z" fill="#2F3342"/>
<path d="M0 131.52H10.96V142.48H0V131.52Z" fill="#2F3342"/>
<path d="M10.96 131.52H21.92V142.48H10.96V131.52Z" fill="#2F3342"/>
<path d="M21.92 131.52H32.88V142.48H21.92V131.52Z" fill="#2F3342"/>
<path d="M32.88 131.52H43.84V142.48H32.88V131.52Z" fill="#2F3342"/>
<path d="M65.76 131.52H76.72V142.48H65.76V131.52Z" fill="#2F3342"/>
<path d="M76.72 131.52H87.68V142.48H76.72V131.52Z" fill="#2F3342"/>
<path d="M87.6801 131.52H98.6401V142.48H87.6801V131.52Z" fill="#2F3342"/>
<path d="M109.6 131.52H120.56V142.48H109.6V131.52Z" fill="#2F3342"/>
<path d="M120.56 131.52H131.52V142.48H120.56V131.52Z" fill="#2F3342"/>
<path d="M153.44 131.52H164.4V142.48H153.44V131.52Z" fill="#2F3342"/>
<path d="M164.4 131.52H175.36V142.48H164.4V131.52Z" fill="#2F3342"/>
<path d="M197.28 131.52H208.24V142.48H197.28V131.52Z" fill="#2F3342"/>
<path d="M208.24 131.52H219.2V142.48H208.24V131.52Z" fill="#2F3342"/>
<path d="M263.04 131.52H274V142.48H263.04V131.52Z" fill="#2F3342"/>
<path d="M0 142.48H10.96V153.44H0V142.48Z" fill="#2F3342"/>
<path d="M32.88 142.48H43.84V153.44H32.88V142.48Z" fill="#2F3342"/>
<path d="M87.6801 142.48H98.6401V153.44H87.6801V142.48Z" fill="#2F3342"/>
<path d="M98.64 142.48H109.6V153.44H98.64V142.48Z" fill="#2F3342"/>
<path d="M109.6 142.48H120.56V153.44H109.6V142.48Z" fill="#2F3342"/>
<path d="M131.52 142.48H142.48V153.44H131.52V142.48Z" fill="#2F3342"/>
<path d="M153.44 142.48H164.4V153.44H153.44V142.48Z" fill="#2F3342"/>
<path d="M164.4 142.48H175.36V153.44H164.4V142.48Z" fill="#2F3342"/>
<path d="M175.36 142.48H186.32V153.44H175.36V142.48Z" fill="#2F3342"/>
<path d="M219.2 142.48H230.16V153.44H219.2V142.48Z" fill="#2F3342"/>
<path d="M252.08 142.48H263.04V153.44H252.08V142.48Z" fill="#2F3342"/>
<path d="M0 153.44H10.96V164.4H0V153.44Z" fill="#2F3342"/>
<path d="M10.96 153.44H21.92V164.4H10.96V153.44Z" fill="#2F3342"/>
<path d="M43.84 153.44H54.8V164.4H43.84V153.44Z" fill="#2F3342"/>
<path d="M54.8 153.44H65.76V164.4H54.8V153.44Z" fill="#2F3342"/>
<path d="M65.76 153.44H76.72V164.4H65.76V153.44Z" fill="#2F3342"/>
<path d="M76.72 153.44H87.68V164.4H76.72V153.44Z" fill="#2F3342"/>
<path d="M109.6 153.44H120.56V164.4H109.6V153.44Z" fill="#2F3342"/>
<path d="M153.44 153.44H164.4V164.4H153.44V153.44Z" fill="#2F3342"/>
<path d="M164.4 153.44H175.36V164.4H164.4V153.44Z" fill="#2F3342"/>
<path d="M219.2 153.44H230.16V164.4H219.2V153.44Z" fill="#2F3342"/>
<path d="M230.16 153.44H241.12V164.4H230.16V153.44Z" fill="#2F3342"/>
<path d="M241.12 153.44H252.08V164.4H241.12V153.44Z" fill="#2F3342"/>
<path d="M252.08 153.44H263.04V164.4H252.08V153.44Z" fill="#2F3342"/>
<path d="M263.04 153.44H274V164.4H263.04V153.44Z" fill="#2F3342"/>
<path d="M0 164.4H10.96V175.36H0V164.4Z" fill="#2F3342"/>
<path d="M21.92 164.4H32.88V175.36H21.92V164.4Z" fill="#2F3342"/>
<path d="M32.88 164.4H43.84V175.36H32.88V164.4Z" fill="#2F3342"/>
<path d="M43.84 164.4H54.8V175.36H43.84V164.4Z" fill="#2F3342"/>
<path d="M54.8 164.4H65.76V175.36H54.8V164.4Z" fill="#2F3342"/>
<path d="M76.72 164.4H87.68V175.36H76.72V164.4Z" fill="#2F3342"/>
<path d="M98.64 164.4H109.6V175.36H98.64V164.4Z" fill="#2F3342"/>
<path d="M131.52 164.4H142.48V175.36H131.52V164.4Z" fill="#2F3342"/>
<path d="M153.44 164.4H164.4V175.36H153.44V164.4Z" fill="#2F3342"/>
<path d="M164.4 164.4H175.36V175.36H164.4V164.4Z" fill="#2F3342"/>
<path d="M186.32 164.4H197.28V175.36H186.32V164.4Z" fill="#2F3342"/>
<path d="M208.24 164.4H219.2V175.36H208.24V164.4Z" fill="#2F3342"/>
<path d="M230.16 164.4H241.12V175.36H230.16V164.4Z" fill="#2F3342"/>
<path d="M241.12 164.4H252.08V175.36H241.12V164.4Z" fill="#2F3342"/>
<path d="M263.04 164.4H274V175.36H263.04V164.4Z" fill="#2F3342"/>
<path d="M0 175.36H10.96V186.32H0V175.36Z" fill="#2F3342"/>
<path d="M43.84 175.36H54.8V186.32H43.84V175.36Z" fill="#2F3342"/>
<path d="M65.76 175.36H76.72V186.32H65.76V175.36Z" fill="#2F3342"/>
<path d="M76.72 175.36H87.68V186.32H76.72V175.36Z" fill="#2F3342"/>
<path d="M109.6 175.36H120.56V186.32H109.6V175.36Z" fill="#2F3342"/>
<path d="M120.56 175.36H131.52V186.32H120.56V175.36Z" fill="#2F3342"/>
<path d="M131.52 175.36H142.48V186.32H131.52V175.36Z" fill="#2F3342"/>
<path d="M142.48 175.36H153.44V186.32H142.48V175.36Z" fill="#2F3342"/>
<path d="M175.36 175.36H186.32V186.32H175.36V175.36Z" fill="#2F3342"/>
<path d="M186.32 175.36H197.28V186.32H186.32V175.36Z" fill="#2F3342"/>
<path d="M197.28 175.36H208.24V186.32H197.28V175.36Z" fill="#2F3342"/>
<path d="M208.24 175.36H219.2V186.32H208.24V175.36Z" fill="#2F3342"/>
<path d="M219.2 175.36H230.16V186.32H219.2V175.36Z" fill="#2F3342"/>
<path d="M241.12 175.36H252.08V186.32H241.12V175.36Z" fill="#2F3342"/>
<path d="M252.08 175.36H263.04V186.32H252.08V175.36Z" fill="#2F3342"/>
<path d="M87.6801 186.32H98.6401V197.28H87.6801V186.32Z" fill="#2F3342"/>
<path d="M109.6 186.32H120.56V197.28H109.6V186.32Z" fill="#2F3342"/>
<path d="M120.56 186.32H131.52V197.28H120.56V186.32Z" fill="#2F3342"/>
<path d="M153.44 186.32H164.4V197.28H153.44V186.32Z" fill="#2F3342"/>
<path d="M175.36 186.32H186.32V197.28H175.36V186.32Z" fill="#2F3342"/>
<path d="M219.2 186.32H230.16V197.28H219.2V186.32Z" fill="#2F3342"/>
<path d="M241.12 186.32H252.08V197.28H241.12V186.32Z" fill="#2F3342"/>
<path d="M252.08 186.32H263.04V197.28H252.08V186.32Z" fill="#2F3342"/>
<path d="M87.6801 197.28H98.6401V208.24H87.6801V197.28Z" fill="#2F3342"/>
<path d="M98.64 197.28H109.6V208.24H98.64V197.28Z" fill="#2F3342"/>
<path d="M109.6 197.28H120.56V208.24H109.6V197.28Z" fill="#2F3342"/>
<path d="M131.52 197.28H142.48V208.24H131.52V197.28Z" fill="#2F3342"/>
<path d="M153.44 197.28H164.4V208.24H153.44V197.28Z" fill="#2F3342"/>
<path d="M175.36 197.28H186.32V208.24H175.36V197.28Z" fill="#2F3342"/>
<path d="M197.28 197.28H208.24V208.24H197.28V197.28Z" fill="#2F3342"/>
<path d="M219.2 197.28H230.16V208.24H219.2V197.28Z" fill="#2F3342"/>
<path d="M263.04 197.28H274V208.24H263.04V197.28Z" fill="#2F3342"/>
<path d="M87.6801 208.24H98.6401V219.2H87.6801V208.24Z" fill="#2F3342"/>
<path d="M120.56 208.24H131.52V219.2H120.56V208.24Z" fill="#2F3342"/>
<path d="M142.48 208.24H153.44V219.2H142.48V208.24Z" fill="#2F3342"/>
<path d="M153.44 208.24H164.4V219.2H153.44V208.24Z" fill="#2F3342"/>
<path d="M164.4 208.24H175.36V219.2H164.4V208.24Z" fill="#2F3342"/>
<path d="M175.36 208.24H186.32V219.2H175.36V208.24Z" fill="#2F3342"/>
<path d="M219.2 208.24H230.16V219.2H219.2V208.24Z" fill="#2F3342"/>
<path d="M263.04 208.24H274V219.2H263.04V208.24Z" fill="#2F3342"/>
<path d="M87.6801 219.2H98.6401V230.16H87.6801V219.2Z" fill="#2F3342"/>
<path d="M98.64 219.2H109.6V230.16H98.64V219.2Z" fill="#2F3342"/>
<path d="M109.6 219.2H120.56V230.16H109.6V219.2Z" fill="#2F3342"/>
<path d="M120.56 219.2H131.52V230.16H120.56V219.2Z" fill="#2F3342"/>
<path d="M131.52 219.2H142.48V230.16H131.52V219.2Z" fill="#2F3342"/>
<path d="M153.44 219.2H164.4V230.16H153.44V219.2Z" fill="#2F3342"/>
<path d="M164.4 219.2H175.36V230.16H164.4V219.2Z" fill="#2F3342"/>
<path d="M175.36 219.2H186.32V230.16H175.36V219.2Z" fill="#2F3342"/>
<path d="M186.32 219.2H197.28V230.16H186.32V219.2Z" fill="#2F3342"/>
<path d="M197.28 219.2H208.24V230.16H197.28V219.2Z" fill="#2F3342"/>
<path d="M208.24 219.2H219.2V230.16H208.24V219.2Z" fill="#2F3342"/>
<path d="M219.2 219.2H230.16V230.16H219.2V219.2Z" fill="#2F3342"/>
<path d="M87.6801 230.16H98.6401V241.12H87.6801V230.16Z" fill="#2F3342"/>
<path d="M98.64 230.16H109.6V241.12H98.64V230.16Z" fill="#2F3342"/>
<path d="M109.6 230.16H120.56V241.12H109.6V230.16Z" fill="#2F3342"/>
<path d="M131.52 230.16H142.48V241.12H131.52V230.16Z" fill="#2F3342"/>
<path d="M175.36 230.16H186.32V241.12H175.36V230.16Z" fill="#2F3342"/>
<path d="M197.28 230.16H208.24V241.12H197.28V230.16Z" fill="#2F3342"/>
<path d="M252.08 230.16H263.04V241.12H252.08V230.16Z" fill="#2F3342"/>
<path d="M263.04 230.16H274V241.12H263.04V230.16Z" fill="#2F3342"/>
<path d="M98.64 241.12H109.6V252.08H98.64V241.12Z" fill="#2F3342"/>
<path d="M109.6 241.12H120.56V252.08H109.6V241.12Z" fill="#2F3342"/>
<path d="M120.56 241.12H131.52V252.08H120.56V241.12Z" fill="#2F3342"/>
<path d="M164.4 241.12H175.36V252.08H164.4V241.12Z" fill="#2F3342"/>
<path d="M186.32 241.12H197.28V252.08H186.32V241.12Z" fill="#2F3342"/>
<path d="M219.2 241.12H230.16V252.08H219.2V241.12Z" fill="#2F3342"/>
<path d="M230.16 241.12H241.12V252.08H230.16V241.12Z" fill="#2F3342"/>
<path d="M241.12 241.12H252.08V252.08H241.12V241.12Z" fill="#2F3342"/>
<path d="M252.08 241.12H263.04V252.08H252.08V241.12Z" fill="#2F3342"/>
<path d="M263.04 241.12H274V252.08H263.04V241.12Z" fill="#2F3342"/>
<path d="M109.6 252.08H120.56V263.04H109.6V252.08Z" fill="#2F3342"/>
<path d="M153.44 252.08H164.4V263.04H153.44V252.08Z" fill="#2F3342"/>
<path d="M164.4 252.08H175.36V263.04H164.4V252.08Z" fill="#2F3342"/>
<path d="M208.24 252.08H219.2V263.04H208.24V252.08Z" fill="#2F3342"/>
<path d="M219.2 252.08H230.16V263.04H219.2V252.08Z" fill="#2F3342"/>
<path d="M241.12 252.08H252.08V263.04H241.12V252.08Z" fill="#2F3342"/>
<path d="M252.08 252.08H263.04V263.04H252.08V252.08Z" fill="#2F3342"/>
<path d="M263.04 252.08H274V263.04H263.04V252.08Z" fill="#2F3342"/>
<path d="M87.6801 263.04H98.6401V274H87.6801V263.04Z" fill="#2F3342"/>
<path d="M131.52 263.04H142.48V274H131.52V263.04Z" fill="#2F3342"/>
<path d="M153.44 263.04H164.4V274H153.44V263.04Z" fill="#2F3342"/>
<path d="M175.36 263.04H186.32V274H175.36V263.04Z" fill="#2F3342"/>
<path d="M197.28 263.04H208.24V274H197.28V263.04Z" fill="#2F3342"/>
<path d="M230.16 263.04H241.12V274H230.16V263.04Z" fill="#2F3342"/>
<path d="M263.04 263.04H274V274H263.04V263.04Z" fill="#2F3342"/>
<path d="M38.36 0H76.72V76.72H0V0H38.36V10.96H10.96V65.76H65.76V10.96H38.36V0Z" fill="#2F3342"/>
<path d="M235.64 0H274V76.72H197.28V0H235.64V10.96H208.24V65.76H263.04V10.96H235.64V0Z" fill="#2F3342"/>
<path d="M38.36 197.28H76.72V274H0V197.28H38.36V208.24H10.96V263.04H65.76V208.24H38.36V197.28Z" fill="#2F3342"/>
<path d="M38.36 21.92H54.8V54.8H21.92V21.92H38.36Z" fill="#2F3342"/>
<path d="M235.64 21.92H252.08V54.8H219.2V21.92H235.64Z" fill="#2F3342"/>
<path d="M38.36 219.2H54.8V252.08H21.92V219.2H38.36Z" fill="#2F3342"/>
</svg>
